<?xml version="1.0" encoding="iso-8859-1"?>
<!-- Uploaded to: SVG Repo, www.svgrepo.com, Generator: SVG Repo Mixer Tools -->
<svg fill="#484848" height="800px" width="800px" version="1.1" id="Layer_1" xmlns="http://www.w3.org/2000/svg" xmlns:xlink="http://www.w3.org/1999/xlink" 
	 viewBox="0 0 512 512" xml:space="preserve">
<g>
	<g>
		<g>
			<path d="M486.4,0H110.933c-14.114,0-25.6,11.486-25.6,25.6v25.6H25.6C11.486,51.2,0,62.686,0,76.8v409.6
				C0,500.514,11.486,512,25.6,512h324.267c14.114,0,25.6-11.486,25.6-25.6v-384c0-18.825,15.309-34.133,34.133-34.133
				c18.825,0,34.133,15.309,34.133,34.133v298.667c0,18.825,15.309,34.133,34.133,34.133S512,419.891,512,401.067V25.6
				C512,11.486,500.514,0,486.4,0z M170.667,452.267H51.2c-4.719,0-8.533-3.823-8.533-8.533s3.814-8.533,8.533-8.533h119.467
				c4.719,0,8.533,3.823,8.533,8.533S175.386,452.267,170.667,452.267z M170.667,409.6H51.2c-4.719,0-8.533-3.823-8.533-8.533
				s3.814-8.533,8.533-8.533h119.467c4.719,0,8.533,3.823,8.533,8.533S175.386,409.6,170.667,409.6z M170.667,366.933H51.2
				c-4.719,0-8.533-3.823-8.533-8.533s3.814-8.533,8.533-8.533h119.467c4.719,0,8.533,3.823,8.533,8.533
				S175.386,366.933,170.667,366.933z M170.667,324.267H51.2c-4.719,0-8.533-3.823-8.533-8.533s3.814-8.533,8.533-8.533h119.467
				c4.719,0,8.533,3.823,8.533,8.533S175.386,324.267,170.667,324.267z M324.267,452.267h-102.4c-4.719,0-8.533-3.823-8.533-8.533
				s3.814-8.533,8.533-8.533h102.4c4.719,0,8.533,3.823,8.533,8.533S328.986,452.267,324.267,452.267z M324.267,409.6h-102.4
				c-4.719,0-8.533-3.823-8.533-8.533s3.814-8.533,8.533-8.533h102.4c4.719,0,8.533,3.823,8.533,8.533S328.986,409.6,324.267,409.6z
				 M324.267,366.933h-102.4c-4.719,0-8.533-3.823-8.533-8.533s3.814-8.533,8.533-8.533h102.4c4.719,0,8.533,3.823,8.533,8.533
				S328.986,366.933,324.267,366.933z M324.267,324.267h-102.4c-4.719,0-8.533-3.823-8.533-8.533s3.814-8.533,8.533-8.533h102.4
				c4.719,0,8.533,3.823,8.533,8.533S328.986,324.267,324.267,324.267z M332.8,273.067c0,4.71-3.814,8.533-8.533,8.533H256H119.467
				H51.2c-4.719,0-8.533-3.823-8.533-8.533V102.4c0-4.71,3.814-8.533,8.533-8.533h273.067c4.719,0,8.533,3.823,8.533,8.533V273.067z
				 M494.933,401.067c0,9.412-7.654,17.067-17.067,17.067s-17.067-7.654-17.067-17.067V102.4c0-28.237-22.963-51.2-51.2-51.2H102.4
				V25.6c0-4.702,3.823-8.533,8.533-8.533H486.4c4.71,0,8.533,3.831,8.533,8.533V401.067z"/>
			<path d="M409.6,93.867c-4.719,0-8.533,3.823-8.533,8.533v375.467c0,4.71,3.814,8.533,8.533,8.533s8.533-3.823,8.533-8.533V102.4
				C418.133,97.69,414.319,93.867,409.6,93.867z"/>
			<path d="M187.733,230.4c-23.006,0-44.023,13.321-55.296,34.133h110.592C231.757,243.721,210.739,230.4,187.733,230.4z"/>
			<path d="M221.867,179.2c0-18.825-15.309-34.133-34.133-34.133S153.6,160.375,153.6,179.2s15.309,34.133,34.133,34.133
				S221.867,198.025,221.867,179.2z"/>
			<path d="M59.733,264.533h53.837c8.491-20.489,24.166-36.326,43.187-44.663c-12.262-9.361-20.224-24.09-20.224-40.67
				c0-28.237,22.963-51.2,51.2-51.2s51.2,22.963,51.2,51.2c0,16.58-7.962,31.309-20.224,40.67
				c19.021,8.337,34.697,24.175,43.187,44.663h53.837v-153.6h-256V264.533z"/>
		</g>
	</g>
</g>
</svg>