<svg xmlns="http://www.w3.org/2000/svg" width="21.292" height="37.579" viewBox="0 0 21.292 37.579">
  <g id="Nurse-icon" transform="translate(-119.8 -15.925)">
    <path id="Path_151" data-name="Path 151" d="M136.763,40.353h-1.292a.572.572,0,0,0-.047-.235c.117-.125.235-.258.344-.391h1.44a3.789,3.789,0,0,0,3.71-4.564l-1.5-7.217a5.7,5.7,0,0,0-.838-2h.642a.628.628,0,0,0,.626-.626V19.187a.637.637,0,0,0-.446-.6l-8.767-2.63a.567.567,0,0,0-.36,0l-8.767,2.63a.622.622,0,0,0-.446.6v6.137a.628.628,0,0,0,.626.626h.642a5.582,5.582,0,0,0-.838,2l-1.5,7.217a3.789,3.789,0,0,0,3.71,4.564h1.44c.11.133.227.266.344.391a.6.6,0,0,0-.047.235h-1.292a4.443,4.443,0,0,0-4.344,4.423v8.1a.628.628,0,0,0,.626.626h20.039a.628.628,0,0,0,.626-.626v-8.1A4.414,4.414,0,0,0,136.763,40.353Zm-6.3,4.618-2.489-3.209a6.931,6.931,0,0,0,2.489.47,6.736,6.736,0,0,0,2.489-.47Zm3.6-2.591-.384,5-2.309-1.534Zm2.035-7.037a5.636,5.636,0,0,1-11.272,0V30.96H136.1Zm-6.544,10.5-2.309,1.534-.384-5Zm-7.233-26.184,8.141-2.442,8.141,2.442V24.7H122.321Zm1.386,18.818a2.544,2.544,0,0,1-2.489-3.061l1.5-7.217a4.368,4.368,0,0,1,1.229-2.247h13a4.368,4.368,0,0,1,1.229,2.247l1.519,7.225a2.544,2.544,0,0,1-2.489,3.061h-.618a6.8,6.8,0,0,0,.751-3.131v-5.01a.628.628,0,0,0-.626-.626H124.2a.628.628,0,0,0-.626.626v5.01a6.9,6.9,0,0,0,.751,3.131h-.618Zm-2.638,13.777V44.776a3.181,3.181,0,0,1,3.139-3.17h1.339l.532,6.935a.63.63,0,0,0,.352.517.667.667,0,0,0,.274.063.657.657,0,0,0,.344-.1l2.787-1.855v5.088h-5.01V49.12a.626.626,0,1,0-1.252,0v3.131Zm18.787,0h-2.5V49.12a.626.626,0,1,0-1.252,0v3.131h-5.01v-5.1l2.787,1.855a.611.611,0,0,0,.344.1.667.667,0,0,0,.274-.063.609.609,0,0,0,.352-.517l.532-6.935h1.339a3.181,3.181,0,0,1,3.139,3.17v7.483Z" fill="#aa4d00"/>
    <path id="Path_152" data-name="Path 152" d="M224.626,288a.628.628,0,0,0-.626.626,1.666,1.666,0,0,0,.877,1.566,4.39,4.39,0,0,0,3.256,0,1.666,1.666,0,0,0,.877-1.566.626.626,0,1,0-1.252,0c0,.3,0,.626-1.252.626s-1.252-.329-1.252-.626A.628.628,0,0,0,224.626,288Z" transform="translate(-96.044 -250.778)" fill="#aa4d00"/>
    <path id="Path_153" data-name="Path 153" d="M209.142,225.768l.18-.18.18.18a.614.614,0,0,0,.446.18.648.648,0,0,0,.446-.18.628.628,0,0,0,0-.885l-.626-.626a.628.628,0,0,0-.885,0l-.626.626a.625.625,0,0,0,.885.885Z" transform="translate(-81.365 -191.857)" fill="#aa4d00"/>
    <path id="Path_154" data-name="Path 154" d="M273.142,225.768l.18-.18.18.18a.614.614,0,0,0,.446.18.648.648,0,0,0,.446-.18.628.628,0,0,0,0-.885l-.626-.626a.628.628,0,0,0-.885,0l-.626.626a.625.625,0,0,0,.885.885Z" transform="translate(-140.355 -191.857)" fill="#aa4d00"/>
    <path id="Path_155" data-name="Path 155" d="M221.636,42.5h-1.879V40.626a.626.626,0,0,0-1.252,0V42.5h-1.879a.626.626,0,0,0,0,1.252H218.5v1.879a.626.626,0,0,0,1.252,0V43.757h1.879a.626.626,0,1,0,0-1.252Z" transform="translate(-88.67 -22.19)" fill="#aa4d00"/>
  </g>
</svg>
